<mxfile host="app.diagrams.net" modified="2024-05-01T06:26:38.618Z" agent="Mozilla/5.0 (Windows NT 10.0; Win64; x64; rv:125.0) Gecko/20100101 Firefox/125.0" version="24.2.7" etag="X4WB14HyYtWT917RmmEM" type="github">
  <diagram name="Page-1" id="ZenlzO5LV9gic_rSfzat">
    <mxGraphModel>
      <root>
        <mxCell id="0" />
        <mxCell id="1" parent="0" />
      </root>
    </mxGraphModel>
  </diagram>
</mxfile>
